<?xml version="1.0" standalone="no"?><!DOCTYPE svg PUBLIC "-//W3C//DTD SVG 1.1//EN" "http://www.w3.org/Graphics/SVG/1.1/DTD/svg11.dtd"><svg t="1682428637437" class="icon" viewBox="0 0 1024 1024" version="1.1" xmlns="http://www.w3.org/2000/svg" p-id="14616" xmlns:xlink="http://www.w3.org/1999/xlink" width="200" height="200"><path d="M306.005333 881.28c-38.997333-30.72-80.64-60.16-109.056-101.546667-59.818667-73.045333-105.898667-157.610667-137.386666-246.485333C40.533333 475.434667 33.962667 413.44 9.472 357.888-16.213333 317.610667 13.866667 273.493333 58.026667 260.650667c19.626667-3.754667 54.272-22.314667 12.501333-9.045334-37.461333 27.477333-41.088-24.96-2.688-28.245333 26.24-3.498667 35.84-24.96 26.88-44.245333-28.117333-18.346667 68.266667-38.528 19.754667-65.877334C64.042667 58.709333 185.173333 48.213333 155.306667 110.08c-7.125333 47.573333 84.650667-8.704 63.36 46.208 21.632 26.410667 81.066667 6.016 79.573333 43.050667 31.573333 2.133333 42.368 28.672 71.978667 30.72 30.72 13.866667 86.314667 24.746667 96.725333 59.349333-30.421333 24.106667-100.906667-49.749333-104.277333 16.938667 9.173333 98.56 6.826667 200.064 42.88 293.888 17.066667 56.832 58.410667 101.546667 95.744 145.834666 35.712 43.349333 84.096 73.813333 133.418666 99.541334 43.264 20.394667 89.898667 33.92 137.088 42.410666 19.114667-14.634667 52.906667-68.992 82.688-46.08 1.408 25.770667-59.221333 53.888-2.858666 51.029334 33.109333-9.984 56.064 25.6 83.328-6.485334 25.088 29.738667 104.362667-19.029333 86.485333 41.813334-24.149333 15.530667-59.392 6.144-83.584 27.562666-39.893333-19.925333-71.68 17.834667-115.84 13.056-49.066667 8.789333-98.944 12.373333-148.650667 12.416-81.578667-6.442667-164.906667-9.173333-242.517333-37.546666-43.733333-12.714667-86.357333-37.632-124.8-62.506667z m68.906667 29.866667c42.666667 18.432 84.437333 37.888 131.2 43.776 74.24 10.282667 150.912 26.197333 225.408 11.690666-33.706667-15.232-68.608 5.973333-102.186667-10.88-40.277333 8.661333-83.498667-2.218667-124.458666-7.552-46.592-20.736-96.853333-34.986667-140.458667-61.952-54.485333-19.882667 28.16 25.514667 42.922667 29.226667 34.048 19.328-37.461333-9.941333-47.573334-17.962667-28.501333-16-32.170667-12.672-2.816 3.584 5.930667 3.456 11.776 7.082667 17.92 10.026667z m-81.237333-57.429334c41.386667 15.317333-0.170667-29.098667-19.157334-26.538666-8.405333-14.549333-32.085333-23.765333-15.36-31.573334-30.08 10.410667-31.488-39.68-45.653333-32.554666-31.786667-10.026667-12.373333-45.610667-50.218667-67.413334-3.456-23.04-37.632-43.008-48.554666-77.738666-4.821333-17.749333-38.613333-68.821333-17.834667-21.333334 17.664 45.738667 48.768 84.906667 74.666667 124.032 20.053333 37.248 43.818667 76.202667 80.426666 99.413334 12.373333 11.861333 24.234667 29.994667 41.685334 33.706666zM174.506667 722.858667c1.408-6.229333 7.552 13.525333 0 0z m168.704 149.205333c9.173333-4.096-13.184-5.12 0 0z m22.442666 8.192c-2.304-11.306667-10.24 6.314667 0 0z m28.16 11.733333c13.354667-12.757333-20.650667-8.021333 0 0z m48.128 26.88c8.149333-12.032-26.026667-4.565333 0 0zM349.44 854.314667c20.778667-13.44-26.88-0.170667 0 0z m21.077333 10.496c-0.597333-7.082667-7.509333 3.2 0 0z m105.386667 65.792c16.981333 10.666667 98.986667 23.466667 47.616 4.394666-8.576 1.792-95.189333-24.490667-47.616-4.394666z m-167.296-130.304c-1.664-7.125333-26.282667-7.893333 0 0z m49.066667 28.586666c12.8-8.917333-26.496-6.826667 0 0z m41.258666 25.301334c18.346667-6.912-29.738667-6.954667 0 0z m-110.293333-75.648c19.882667 15.274667 80.213333 1.962667 30.464-9.088-22.613333-12.074667-73.685333-20.309333-38.912 7.253333l8.448 1.834667z m138.24 84.394666c8.277333-14.08-34.730667-8.064 0 0z m-41.984-33.408c48.64 13.781333-40.874667-30.72-11.989333-5.034666l6.4 2.901333 5.546666 2.133333z m84.224 48.682667c46.037333 0.426667-41.6-6.314667 0 0z m-198.186667-126.293333c-1.792-8.576-11.349333 0.725333 0 0z m276.053334 169.984c1.237333-15.488-15.018667 11.52 0 0z m-197.504-121.856c-2.773333-8.149333-14.378667-0.341333 0 0z m-74.197334-53.504c26.453333-1.578667-36.181333-11.648 0 0z m-87.893333-56.832c-3.285333-12.672-28.757333-22.784 0 0zM418.133333 836.266667c-4.864-5.546667-2.304 1.194667 0 0z m143.616 88.106666c-0.426667-8.405333-7.808 3.2 0 0z m-156.330666-101.248c2.56-10.88-22.570667-3.285333 0 0zM298.453333 755.2c19.626667-2.090667-31.530667-13.269333 0 0z m180.992 112.512c30.634667-12.16-29.866667-5.973333 0 0zM385.28 803.84c35.328 4.522667-42.026667-24.021333-7.722667-2.56z m122.752 75.434667c32.981333-19.712 22.101333 46.165333 55.936 5.546666 33.365333-24.32-28.8 30.165333 12.330667 4.394667 29.738667-19.925333 73.685333 9.386667 101.418666 18.986667 19.968-0.981333 39.381333 17.28 59.861334 6.186666 39.381333-10.666667-77.056-15.786667-46.506667-34.56-36.053333 10.453333-62.72-12.544-80.426667-35.626666-40.448-9.344-87.210667-29.994667-107.392-65.792-8.192-13.44 11.904 1.877333-7.082666-20.053334-24.362667-21.674667-36.522667-46.293333-52.906667-72.618666-19.498667-10.410667-21.76-41.088-23.765333-1.024 0.170667-25.301333-23.594667-42.325333-29.397334-35.242667-0.085333-24.362667 25.429333-12.16 7.552-30.165333-3.84-25.258667-16.512-51.584-20.309333-80.085334-5.888-13.738667-0.853333-43.136-20.181333-12.032-7.04 32.853333-2.346667-40.405333 8.618666-16.213333 14.378667-24.704-5.12-21.76-5.973333-18.346667 9.386667-20.821333 5.973333-50.346667-2.432-39.082666 4.992-22.058667 7.893333-81.152-7.466667-70.656 9.301333-23.04 17.664-105.514667-22.784-74.069334-16.384 0.213333-44.714667 5.973333-58.154666 12.629334 42.069333 23.168-4.224 8.362667-21.333334 4.693333-2.218667 21.418667-19.2 12.16-40.362666 12.373333 33.834667 4.181333-16.469333 34.56-35.882667 22.784-25.173333 12.032 21.76 42.112 0.512 51.413334 2.602667 13.994667-38.613333-5.077333-35.413333 27.306666-24.448-10.282667-3.328 38.4 8.917333 21.930667 41.6 11.264 29.269333 36.949333 30.336 61.312-6.784 14.208-33.493333-33.408-5.973333-31.189333-21.674667-35.285333-23.978667-12.757333-42.026667 3.626666-4.224 1.194667 46.037333 23.338667 14.506667 34.261334 27.733333 4.266667 28.501333 28.586667 34.133333 43.946666 16.682667 17.365333 13.269333-19.2 33.237333 1.706667-12.629333-18.602667-66.858667-52.394667-23.210666-41.557333-0.213333-18.730667-7.893333-33.834667 5.504-33.450667 13.226667-23.978667-13.866667 59.178667 16 28.672 8.234667-3.626667 10.282667-24.021333 25.173333 1.92 21.546667 21.248 7.765333 36.608-22.656 17.194667 5.418667 18.474667 40.704 25.045333 34.090667 53.973333 7.04 25.386667 16.853333 16.042667 25.429333 14.592 6.741333 24.661333 10.538667 6.528 10.88-5.248 30.762667 6.613333 23.552 24.789333 33.194667 37.546667 21.205333 9.557333-30.378667-64.938667 6.058666-22.442667 38.314667 34.602667 14.378667 49.066667-20.053333 43.52 21.76-1.749333 28.8 29.44 56.021333 28.330667 24.832 11.818667 41.642667 57.173333-1.152 38.272-14.848-13.354667-67.370667-29.866667-24.448-4.437334 39.637333 18.346667 71.082667 29.354667 109.312 52.352 27.306667 19.541333 39.168 41.898667 49.493334 46.336-22.954667 10.965333-69.248-8.789333-34.858667-14.848-21.461333-3.882667-45.568-14.72-25.045333 11.946667 17.493333 14.634667 61.866667 13.056 69.845333 14.72-6.784 14.848-18.346667 16.042667 0.256 17.194667-20.736 11.093333 6.656 12.8 8.576 19.114666z m-42.410667-119.808c-12.629333-13.226667-15.914667-37.973333-2.261333-16.426667 6.997333 2.816 22.4 40.405333 2.261333 16.426667z m138.154667 87.765333c7.893333-0.469333 0.256 5.973333 0 0z m-158.122667-120.149333c-0.469333-19.968 4.565333 15.402667 0 0z m-13.738666-18.474667c-15.872-30.677333 20.053333 8.704 0 0z m-166.4-114.858667c9.301333-2.517333 4.565333 15.957333 0 0z m132.437333 71.765334c5.717333-21.504 6.741333 18.090667 0 0z m-93.568-65.066667c-6.613333-11.861333 13.781333 11.136 0 0z m80.298667 25.770667c-15.018667-33.706667 10.666667-18.432 3.328 5.546666zM246.186667 533.845333c-6.741333-11.093333-17.834667-43.52-14.250667-53.418666 3.242667 16.128 34.304 69.418667 15.232 22.101333-21.077333-39.68 25.173333 12.885333 29.952 22.784 2.176 9.813333-13.013333-2.688-2.730667 20.394667-18.773333-26.325333-11.093333 14.506667-28.202666-11.861334z m-42.794667-29.482666c1.749333-25.728 9.813333 17.621333 0 0z m19.242667 6.613333c9.173333-19.413333 15.573333 27.050667 0 0z m-46.293334-35.84c-15.957333-15.786667-27.477333-30.421333 0.725334-9.813333 10.88 0.426667-24.149333-33.194667 2.602666-10.666667 28.16 5.12 13.909333 46.165333-3.328 20.48z m24.32-0.64c9.258667-9.173333 4.906667 9.045333 0 0z m14.933334 4.821333c-13.994667-26.325333 17.066667 11.008 0 0z m-29.738667-28.458666c-46.336-41.216 58.24 21.589333 7.552 7.68l-7.552-7.68z m132.736 77.141333c-20.053333-12.032-5.290667-84.650667 1.536-34.986667 19.498667-6.314667-1.066667 25.642667 13.44 25.344-2.261333 20.181333-8.789333 27.434667-14.933333 9.642667z m49.066667 29.013333c2.005333-21.888 4.181333 14.933333 0 0z m-8.533334-8.448c2.261333-9.344 0.256 11.008 0 0zM194.986667 437.333333c-29.738667-41.088 86.485333 41.514667 19.072 10.410667-7.04-1.834667-15.530667-2.517333-19.072-10.410667z m94.549333 50.133334c-2.816-34.56 6.272 5.717333 0 0z m71.765333 46.037333c5.546667-19.712 0.426667 13.013333 0 0zM199.509333 421.632c17.706667-3.754667 73.301333 31.104 22.229334 9.984-5.674667-6.314667-17.792-3.413333-22.229334-9.984z m151.893334 75.733333c1.877333-35.370667 10.581333-21.12 0.085333 5.034667l-0.085333-5.034667zM212.693333 409.344c7.210667-10.581333-19.157333-47.786667 3.797334-13.354667 9.898667 7.893333 28.672 13.226667 12.074666 16.512 26.069333 22.997333-6.357333 6.229333-15.872-3.157333z m131.2 76.970667c4.992-40.277333 4.394667 23.594667 0 0zM197.632 372.138667c5.504-2.346667 2.901333 7.338667 0 0z m34.218667 20.394666c8.789333-18.517333 16.213333 20.608 0 0z m96.554666 53.717334c-0.085333-7.125333 1.834667 10.325333 0 0z m-5.589333-12.373334c-13.397333-33.109333 12.458667 17.493333 0 0z m-8.234667-21.717333c-2.261333-13.653333 7.68 17.194667 0 0z m13.397334-21.76c-9.216-16.213333 11.605333-71.424 13.909333-37.162667-9.685333 26.666667-2.773333 41.6 3.968 5.802667 12.501333-28.16-2.688 55.594667-17.92 31.36z m13.738666-82.090667c4.010667-4.906667 0.896 5.930667 0 0z m-22.954666 452.821334c-5.461333-4.736 0.682667 3.029333 0 0z m47.36 23.936c26.282667 6.784 26.154667-4.096 2.346666-7.296-12.8-11.946667-53.162667-24.533333-17.024-1.493334 2.389333 6.058667 9.984 5.930667 14.634667 8.789334z m-93.525334-62.08c14.506667 10.794667 54.613333 30.677333 20.650667 4.096 11.477333-13.312-21.930667-20.394667-10.837333-29.269334-28.16-17.237333-22.186667-15.701333-2.474667-15.189333-33.877333-15.104 4.864-13.994667 3.029333-21.76-13.056-2.56-64.853333-22.997333-34.346666 1.706667-30.976-15.786667-7.381333 5.888-16.725334 3.584-31.701333-8.618667 28.16 24.106667-5.034666 16 18.133333 14.378667 48.896 36.864 7.68 15.232-5.461333 7.808 29.482667 19.626667 38.058666 25.6z m49.493334 28.458666c60.202667 19.370667-29.482667-23.722667 0 0z m253.44 153.514667c0.853333-11.946667-8.192 10.24 0 0z m26.112 10.965333c13.866667-13.44 0.554667 21.461333 22.997333-3.285333 0.256-17.706667-0.682667-28.16-25.813333-6.656-6.912 3.84-9.984 20.181333 2.816 9.941333zM188.074667 656.213333c-4.266667-16.768-29.866667-16.64 0 0z m27.818666 18.261334c-10.325333-17.152-36.864-15.530667 0 0z m158.293334 95.445333c15.445333 13.696 70.954667 10.069333 18.773333 1.706667-7.765333-11.477333-49.109333-8.704-18.773333-1.706667z m217.514666 134.357333c23.808-19.968-23.04 8.874667 0 0z m49.493334 33.962667c0.128-6.4-10.24 2.816 0 0z m0.042666-8.96c26.325333-27.904-25.514667 1.664 0 0zM119.68 598.954667c-22.442667-32-13.952-46.421333-35.626667-72.533334-4.096-20.053333-37.12-65.408-17.066666-17.322666 18.346667 28.117333 23.808 71.637333 52.693333 89.856z m513.28 321.450666c48.469333-31.317333-19.84-13.653333 0 0z m36.992 14.506667c24.32-20.821333-15.36-4.352 0 0zM179.84 620.8c6.954667-10.325333-17.92-1.322667 0 0z m482.389333 304.170667c23.509333-15.146667-5.376-12.8-4.266666 1.365333zM343.466667 724.053333c-0.853333-10.24-12.416 0.853333 0 0z m19.669333 11.349334c-6.229333-12.672-9.6 2.005333 0 0z m336.810667 199.850666c30.08-21.76-18.261333-4.181333-6.314667 4.096z m-11.52-5.546666c24.490667-20.565333-25.898667 9.088 0 0z m58.88 39.168c16.469333-11.008-20.010667-3.541333 0 0zM194.944 613.376c22.058667 4.949333 88.149333 54.357333 49.152 3.413333-19.968-5.888-7.978667-54.741333-28.373333-46.08 13.653333 22.826667 11.264 32.554667-17.450667 18.176-36.096-17.621333-20.266667 8.704-13.226667 15.957334-9.6 2.218667 12.714667 8.362667 9.898667 8.533333z m-100.522667-79.36c3.925333-16.341333-36.394667-89.898667-19.029333-36.864 6.229333 11.093333 5.589333 32.170667 19.029333 36.864z m184.490667 113.749333c-11.349333-9.514667-0.554667-1.365333 0 0z m27.989333 6.485334c0-17.28-30.933333-6.997333 0 0z m242.432 152.874666c-4.608-11.861333-18.261333-0.256 0 0z m11.648 8.490667c-1.706667-6.613333-6.698667 1.28 0 0z m96.128 60.544c9.216-6.826667-11.52-0.853333 0 0zM144.64 546.816c26.453333-10.24-28.330667-7.296 0 0z m383.36 241.536c-0.298667-17.109333-16.853333 4.266667 0 0z m-393.813333-265.856c16.981333-5.76-15.701333-3.797333 0 0z m49.28 23.893333c-0.298667-5.674667-5.205333 2.133333 0 0z m601.173333 368.64c21.888-4.437333 71.637333 11.093333 79.658667-5.802666-26.496-0.64-91.733333-18.688-94.805334 4.309333l5.802667 0.938667 9.386667 0.554666zM199.168 550.314667c0.384-17.365333-13.525333-0.64 0 0zM69.546667 460.373333c-5.888-33.066667-22.4-5.034667 0 0z m30.890666 7.765334c0.384-10.624-28.288-9.557333 0 0z m17.664 8.661333c-5.12-4.138667-4.010667 5.205333 0 0z m111.146667 71.253333c5.205333-4.778667-12.373333-3.541333 0 0z m-122.88-90.794666c-2.986667-24.96-35.84-3.754667 0 0z m-63.402667-41.130667c-0.853333-11.52-6.144 4.352 0 0z m9.429334-7.125333c-1.536-13.653333-8.106667 1.706667 0 0z m52.053333 31.104c22.058667-8.661333-40.106667-17.92-4.48-1.664z m696.917333 430.464c14.08-12.928-17.92-4.010667 0 0z m84.224 43.648c5.632-16.725333-14.250667 2.176 0 0zM109.781333 412.842667c2.346667-16.170667-17.450667 3.2 0 0zM35.712 363.221333c-3.968-22.826667-3.413333-62.890667 34.645333-49.322666-50.816 10.069333 35.157333 63.146667 24.32 21.248 21.333333 1.024 41.813333-12.629333 30.549334 8.106666 42.112-4.650667 71.296-41.130667 111.957333-36.053333 31.658667-4.181333 66.304-7.338667 100.437333-20.096 28.074667-2.048 55.082667-32.256 39.68-50.133333-38.229333-3.242667-78.293333 1.536-120.618666 9.941333-46.848 9.728-89.429333 28.245333-136.746667 36.224-46.08 6.186667 9.258667 17.066667-3.925333 19.456-24.064 8.362667 28.672 13.994667-3.114667 22.784-19.626667-3.754667-40.106667-10.496-31.701333-31.146667-44.16 5.674667-82.986667 24.021333-48.085334 68.949334h2.602667z m106.410667-54.186666c10.368-38.144 55.466667 31.36 16.981333 5.034666-4.608-3.413333-12.16-6.229333-16.981333-5.077333z m2.005333-18.517334c14.933333-11.093333 7.936 6.229333 0 0z m18.986667 0.341334c1.365333-17.536 43.434667 9.301333 6.954666 6.314666z m25.941333-10.453334c9.472-11.093333 2.730667 9.856 0 0z m6.656-4.437333c15.786667-18.944 89.386667-12.074667 35.498667-1.834667-14.421333-10.88-25.514667 6.4-35.498667 1.834667z m96.042667-14.805333c-2.389333-51.797333 47.701333 18.432 0 0z m27.264-0.170667c9.941333-26.112 38.656-10.453333 4.608-5.248 0.725333 2.773333-1.024 13.482667-4.608 5.248zM99.072 399.445333c29.738667-18.218667-31.616-15.786667 0 0z m21.973333 6.144c10.453333-11.093333-22.656-4.522667 0 0z m-64.853333-46.08c17.024-13.013333-20.096-4.949333 0 0z m879.061333 549.973334c0.512-15.146667-12.970667 6.826667 0 0z m-89.301333-60.970667c2.56-17.450667-11.52 1.536 0 0z m113.92 66.858667c23.765333 0 72.021333-7.381333 20.266667-7.381334-8.106667 1.28-47.317333 1.024-20.309334 7.381334zM140.373333 394.837333c19.242667-1.28 30.122667-21.205333-3.712-20.053333-52.48-5.418667 46.250667 17.92-6.741333 11.264-7.125333 4.693333 10.069333 10.112 10.453333 8.832z m16.981334 8.618667c-2.048-12.373333-5.973333 6.570667 0 0z m20.053333-53.632c8.405333-10.368-11.52-2.773333 0 0z m-64-107.008c34.389333-11.690667 81.365333-24.789333 97.578667 5.76-16.512-19.882667-6.656-39.424 8.96-10.368 22.016 29.397333 33.066667-13.354667 18.688-23.253333 16.341333 20.309333 34.944 29.909333 10.965333 1.28 26.026667-31.317333-52.181333 4.138667-69.973333 3.754666-8.533333 3.84-88.362667 20.352-66.176 22.826667z m20.138667-38.528c19.626667-14.805333 67.754667 8.789333 36.864-14.72-2.986667-2.645333-67.669333 17.834667-36.864 14.72z m71.424 2.944c22.954667 0.554667-9.856-30.805333 17.450666-16.597333-4.48-14.677333-31.829333-17.408-45.184-23.253334-7.552 13.397333 15.36 40.021333 27.733334 39.850667z m-58.88-64.853333c7.936-10.752-13.909333 5.461333 0 0z m29.184 6.997333c36.949333-4.906667-9.386667-15.914667-7.424-0.426667z m-54.485334-42.666667c-26.026667-33.962667 48.896 5.717333 22.485334-29.866666-22.272-17.706667-43.648 19.968-22.485334 29.866666z m333.866667 179.84c11.946667-21.162667-49.28-28.501333-8.021333-7.466666 3.797333 1.28 2.944 8.96 8.021333 7.466666z" p-id="14617"></path></svg>