<?xml version="1.0" standalone="no"?><!DOCTYPE svg PUBLIC "-//W3C//DTD SVG 1.1//EN" "http://www.w3.org/Graphics/SVG/1.1/DTD/svg11.dtd"><svg t="1682428455787" class="icon" viewBox="0 0 1024 1024" version="1.1" xmlns="http://www.w3.org/2000/svg" p-id="9952" xmlns:xlink="http://www.w3.org/1999/xlink" width="200" height="200"><path d="M121.3 283.3c-79.3 113.9-69.5 262-8.8 383 1.4 2.9 2.9 5.7 4.4 8.5 0.9 1.9 1.8 3.7 2.9 5.6 0.5 1 1.1 2.1 1.8 3.1l3 5.7 5.9 9.9c1.1 1.8 2.1 3.6 3.4 5.5 2 3.5 4.5 7 6.6 10.5 1 1.5 1.9 2.9 2.9 4.4 4.1 6.5 8 11.9 12 17.1l-0.4-0.6c2.9 4 5.8 7.9 9 11.8 1 1.4 2.1 2.8 3.2 4.3l8.3 10.1c1 1.1 2 2.5 3.1 3.7 3.7 4.4 7.5 8.7 11.4 13 0 0.1 0.1 0.1 0.2 0.3 4.8 6.1 10 11.5 15.7 16.3l0.2 0.1c3 3.1 6 6.1 9.2 9.1l3.8 3.6c4.1 3.9 8.3 7.8 12.7 11.5 0.1 0 0.1 0.1 0.2 0.1l2.1 1.9c3.8 3.3 7.6 6.6 11.6 9.7l4.7 3.9c3.2 2.5 6.5 5 9.7 7.5l5.1 3.9c3.5 2.6 7.2 5.2 10.7 7.7 1.3 0.9 2.6 1.9 3.9 2.7l1.1 0.9 10.5 6.9 4.5 3c5.5 3.5 11 6.8 16.4 10.1 1.6 0.8 3.1 1.7 4.6 2.5 4 2.3 8.2 4.7 12.3 6.8 2.2 1.3 4.6 2.4 6.9 3.5 2.8 1.6 5.7 3.1 8.7 4.7 0.7 0.2 1.5 0.5 2.2 0.9h-0.1c1.2 0.6 2.4 1.1 3.6 1.8 4.5 2.2 9.2 4.4 14 6.5 0.9 0.4 1.9 0.8 2.8 1.3 5.4 2.4 10.8 4.6 16.3 6.8 1.3 0.4 2.6 1 3.9 1.5 5 1.9 10.2 3.8 15.3 5.7l1.9 0.7c5.7 1.9 11.3 3.8 17.1 5.6 1.3 0.4 2.7 0.9 4.1 1.2 5.9 1.8 11.7 3.9 17.7 5.1 383.1 69.8 494.5-230.3 494.5-230.3C844.2 824 678.2 856.1 521 820.4c-5.8-1.3-11.7-3.2-17.5-4.9-8.3-2.4-16.6-5-24.7-7.8l3.5 1.1-2.3-0.9c-5.1-1.7-10-3.6-14.9-5.5-1.2-0.5-2.4-1-3.7-1.4l-0.4-0.1c-5.5-2.2-10.8-4.5-16.1-6.8-1.1-0.4-2.1-0.9-3.3-1.3-6.3-2.7-12.5-5.6-18.6-8.6l5.2 2.3c-1.4-0.6-2.6-1.2-3.9-1.9-3.5-1.7-7-3.5-10.4-5.3-2.6-1.2-5.2-2.6-7.7-4l0.8 0.4c-4.2-2.2-8.4-4.7-12.7-7-1.3-0.9-2.7-1.7-4.2-2.5-6.3-3.7-12.6-7.5-18.7-11.5l2.4 1.4c-1.6-1-3.1-2-4.6-3.1l0.2 0.2c-4.2-2.6-8.3-5.3-12.3-8.1l0.7 0.5c-1.3-0.9-2.5-1.8-3.8-2.7-4.8-3.3-8.3-5.9-11.9-8.6l0.9 0.6c-1.6-1.3-3.2-2.5-4.9-3.7-3.3-2.6-6.6-5-9.9-7.8l-4.4-3.5c-4.9-3.9-8.9-7.4-12.9-10.9l0.4 0.4c-0.4-0.4-0.9-0.8-1.3-1.1l-13-11.8-3.7-3.5c-3.1-3.1-6.2-6.1-9.3-9.2l-3.6-3.7c-3.9-3.8-7.6-7.8-11.3-11.8l-0.2-0.3-0.6-0.6c-4-4.4-7.8-8.8-11.7-13.2-1-1.1-1.9-2.4-3-3.6l-8.4-10.3c-3.8-4.8-7.5-9.7-11.2-14.6l-1.5-2.1c-87.2-119.1-118.7-283.3-49-418.1l-62.2 77.8z" fill="#0769AD" p-id="9953"></path><path d="M367.3 187.4c-57.5 82.5-54.2 192.8-9.5 280 8.3 16.4 16.7 30.2 26 43.3l-0.7-1.1c8.6 12.3 18.1 26.9 29.6 36.8 4.1 4.6 8.4 9.1 12.9 13.4l3.4 3.4c4.3 4.1 8.6 8.1 13.1 12.1l0.6 0.5c4.5 3.9 9.5 8.1 14.7 12.2l0.8 0.6c1.3 0.9 2.4 1.9 3.6 2.7 5.2 4 10.5 7.9 15.9 11.8l0.6 0.3c2.3 1.7 4.8 3.2 7.4 4.8 1 0.7 2.2 1.6 3.4 2.2 3.9 2.5 7.8 4.9 11.8 7.4l1.8 0.9c3.4 2 7 4 10.5 5.9 1.2 0.8 2.4 1.3 3.7 2 2.5 1.2 5 2.5 7.4 3.8l1.2 0.5c5 2.5 10.2 4.8 15.2 7.1 5.3 2.3 10.6 4.5 16 6.6 1.9 0.6 3.6 1.4 5.4 1.9 3.8 1.4 7.8 2.7 11.6 4l5.2 1.7c5.5 1.7 11 3.9 16.7 4.8 295.7 49 364.2-178.8 364.2-178.8-61.6 88.7-180.9 131-308.1 98-6.3-1.6-12.6-3.4-18.8-5.5l2.1 0.6c-1.8-0.5-3.4-1-5.1-1.6-3.9-1.3-7.9-2.7-11.7-4.1l-5.4-2c-4.2-1.7-8.4-3.2-12.5-5-1.3-0.6-2.4-0.9-3.4-1.5-5.2-2.4-10.5-4.7-15.6-7.2l-7.7-4-4.5-2.2c-3.4-1.8-6.6-3.7-9.9-5.6-0.8-0.4-1.6-0.8-2.4-1.3l0.1 0.1c-3.9-2.5-8.1-4.8-11.8-7.4-1.3-0.7-2.4-1.6-3.6-2.3l-7.8-5.1c-5.4-3.7-10.6-7.8-15.9-11.7-1.2-1.1-2.4-2-3.5-2.9-55.9-43.9-100-104-120.9-172.1-22-70.7-17.2-150 20.9-214.4l-47 66.4z" fill="#0769AD" p-id="9954"></path><path d="M574.1 115.7C540.2 165.4 537 227.2 560.3 282c24.8 58.3 75.5 104 134.6 125.7 2.4 0.9 4.8 1.7 7.3 2.6l3.3 1c3.4 1.1 6.9 2.4 10.4 3.1 163.4 31.5 207.6-83.9 219.5-100.8-38.9 55.9-104.2 69.3-184.2 49.8-7-1.7-13.8-3.8-20.5-6.4l1.2 0.4c-8.3-2.9-16.5-6.3-24.4-10.1l1.4 0.6c-14.4-7-28.2-15.4-40.9-25.1l0.6 0.4c-71.7-54.3-116.1-158-69.3-242.4l-25.2 34.9z" fill="#0769AD" p-id="9955"></path></svg>