<?xml version="1.0" standalone="no"?><!DOCTYPE svg PUBLIC "-//W3C//DTD SVG 1.1//EN" "http://www.w3.org/Graphics/SVG/1.1/DTD/svg11.dtd"><svg t="1682761142646" class="icon" viewBox="0 0 1024 1024" version="1.1" xmlns="http://www.w3.org/2000/svg" p-id="4109" xmlns:xlink="http://www.w3.org/1999/xlink" width="200" height="200"><path d="M254.378667 512.042667l143.573333 117.589333 114.261333-201.685333 115.285334 299.477333a4.906667 4.906667 0 0 0 3.925333 3.072 4.864 4.864 0 0 0 4.608-2.133333l143.232-220.928h68.309333a809.173333 809.173333 0 0 1-48.384 153.002666c-60.757333 141.269333-163.584 234.026667-308.394666 278.229334-141.653333-48.938667-241.792-141.781333-300.501334-278.442667a765.312 765.312 0 0 1-46.634666-148.181333h110.72zM490.794667 85.333333c66.986667 38.229333 128.682667 67.925333 185.088 89.173334 56.405333 21.205333 115.328 36.010667 176.896 44.458666 11.221333 68.864 13.738667 136.533333 7.594666 203.008h-128l-81.834666 126.165334-119.765334-311.125334a4.736 4.736 0 0 0-8.533333-0.597333L373.333333 498.773333 285.354667 426.624H131.2a849.365333 849.365333 0 0 1 7.168-205.994667 1189.973333 1189.973333 0 0 0 173.056-51.2A1351.338667 1351.338667 0 0 0 490.794667 85.333333z" fill="#3B8DFF" p-id="4110"></path></svg>