<?xml version="1.0" standalone="no"?><!DOCTYPE svg PUBLIC "-//W3C//DTD SVG 1.1//EN" "http://www.w3.org/Graphics/SVG/1.1/DTD/svg11.dtd"><svg t="1683457619597" class="icon" viewBox="0 0 1024 1024" version="1.1" xmlns="http://www.w3.org/2000/svg" p-id="8067" xmlns:xlink="http://www.w3.org/1999/xlink" width="200" height="200"><path d="M0 0h1024v1024H0V0z" fill="#202425" opacity=".01" p-id="8068"></path><path d="M682.666667 341.333333a136.533333 136.533333 0 0 1 273.066666 0v546.133334a68.266667 68.266667 0 0 1-68.266666 68.266666h-204.8V341.333333z" fill="#FFAA44" p-id="8069"></path><path d="M68.266667 819.2a136.533333 136.533333 0 0 0 136.533333 136.533333h682.666667a68.266667 68.266667 0 0 1-68.266667-68.266666V204.8a136.533333 136.533333 0 0 0-136.533333-136.533333H204.8a136.533333 136.533333 0 0 0-136.533333 136.533333v614.4z" fill="#FF7744" p-id="8070"></path><path d="M187.733333 273.066667A51.2 51.2 0 0 1 238.933333 221.866667h68.266667a51.2 51.2 0 1 1 0 102.4H238.933333A51.2 51.2 0 0 1 187.733333 273.066667z m0 204.8A51.2 51.2 0 0 1 238.933333 426.666667h409.6a51.2 51.2 0 0 1 0 102.4H238.933333A51.2 51.2 0 0 1 187.733333 477.866667zM238.933333 631.466667a51.2 51.2 0 0 0 0 102.4h204.8a51.2 51.2 0 0 0 0-102.4H238.933333z" fill="#FFFFFF" p-id="8071"></path></svg>