<?xml version="1.0" standalone="no"?><!DOCTYPE svg PUBLIC "-//W3C//DTD SVG 1.1//EN" "http://www.w3.org/Graphics/SVG/1.1/DTD/svg11.dtd"><svg t="1683509130871" class="icon" viewBox="0 0 1024 1024" version="1.1" xmlns="http://www.w3.org/2000/svg" p-id="2932" xmlns:xlink="http://www.w3.org/1999/xlink" width="200" height="200"><path d="M697.4976 158.3104h-470.528c-48.3328 0-87.552 39.168-87.552 87.552v484.7104c0 16.64 18.688 26.368 32.3584 16.8448l91.392-63.7952h434.3296c48.3328 0 87.552-39.168 87.552-87.552v-350.208c0-48.3328-39.2192-87.552-87.552-87.552z" fill="#ECD300" p-id="2933"></path><path d="M84.5824 393.3184c-8.4992 0-15.36-6.8608-15.36-15.36V348.672c0-8.4992 6.8608-15.36 15.36-15.36s15.36 6.8608 15.36 15.36v29.2864c0 8.4992-6.8608 15.36-15.36 15.36z" fill="#333333" p-id="2934"></path><path d="M720.2816 161.3824v406.6304c0 28.4672-3.7888 100.608-49.664 108.032 61.1328 0.512 114.432-16.5376 114.432-116.1728V245.8624c0-40.448-27.4944-74.3936-64.768-84.48z" fill="#E8A200" p-id="2935"></path><path d="M105.1648 766.4128c-5.6832 0-11.3664-1.3312-16.64-4.096a35.76832 35.76832 0 0 1-19.3024-31.8464V437.7088c0-8.4992 6.8608-15.36 15.36-15.36s15.36 6.8608 15.36 15.36v292.8128c0 2.7648 1.7408 4.0448 2.816 4.608 1.024 0.5632 3.1232 1.2288 5.376-0.3584l102.0928-71.2704c2.56-1.792 5.632-2.7648 8.8064-2.7648h470.9376c43.9808 0 79.7696-35.7888 79.7696-79.7696v-380.416c0-43.9808-35.7888-79.7696-79.7696-79.7696H179.6608c-43.9808 0-79.7696 35.7888-79.7696 79.7696V255.488c0 8.4992-6.8608 15.36-15.36 15.36s-15.36-6.8608-15.36-15.36V200.5504c0-60.928 49.5616-110.4896 110.4896-110.4896h510.2592c60.928 0 110.4896 49.5616 110.4896 110.4896v380.416c0 60.928-49.5616 110.4896-110.4896 110.4896H223.8464l-98.0992 68.5056a35.98848 35.98848 0 0 1-20.5824 6.4512z" fill="#333333" p-id="2936"></path><path d="M847.5648 311.0912v291.1744c0 75.8272-61.44 137.2672-137.2672 137.2672H218.5728v24.1152c0 49.7152 40.2944 90.0096 90.0096 90.0096h498.3808l99.7888 67.6352c13.6704 9.2672 32.1024-0.512 32.1024-17.0496V405.9648c0-51.2-40.5504-92.8768-91.2896-94.8736z" fill="#FFAC48" p-id="2937"></path><path d="M938.8544 405.9648c0-41.0112-26.0096-75.8272-62.4128-89.1392v409.856c0 50.8416 5.4784 126.9248-77.6192 126.9248h8.1408l99.7888 67.6352c13.6704 9.2672 32.1024-0.512 32.1024-17.0496V405.9648z" fill="#FC992D" p-id="2938"></path><path d="M918.272 940.1856c-7.0656 0-14.08-2.0992-20.1728-6.1952l-95.8464-64.9728h-147.6096c-8.4992 0-15.36-6.8608-15.36-15.36s6.8608-15.36 15.36-15.36h152.32c3.072 0 6.0928 0.9216 8.6016 2.6624l99.7888 67.6352c2.2528 1.536 4.3008 0.8192 5.376 0.3072s2.7648-1.8944 2.7648-4.608V406.016c0-37.4272-25.5488-68.8128-60.5696-77.3632v273.6128c0 84.1728-68.4544 152.6272-152.6272 152.6272H233.9328v8.7552c0 41.1648 33.4848 74.6496 74.6496 74.6496h264.96c8.4992 0 15.36 6.8608 15.36 15.36s-6.8608 15.36-15.36 15.36H308.5824c-58.112 0-105.3696-47.2576-105.3696-105.3696v-24.1152c0-8.4992 6.8608-15.36 15.36-15.36h491.7248c67.2256 0 121.9072-54.6816 121.9072-121.9072V311.0912c0-4.1984 1.6896-8.192 4.7104-11.0592 3.0208-2.9184 7.168-4.352 11.264-4.2496 59.4944 2.3552 106.0352 50.7904 106.0352 110.2848v498.2272c0 13.312-7.3216 25.4976-19.0976 31.744-5.3248 2.7648-11.0592 4.1472-16.8448 4.1472z" fill="#333333" p-id="2939"></path><path d="M222.7712 392.0384m-45.6704 0a45.6704 45.6704 0 1 0 91.3408 0 45.6704 45.6704 0 1 0-91.3408 0Z" fill="#76BFFF" p-id="2940"></path><path d="M429.4656 392.0384m-45.6704 0a45.6704 45.6704 0 1 0 91.3408 0 45.6704 45.6704 0 1 0-91.3408 0Z" fill="#76BFFF" p-id="2941"></path><path d="M636.1088 392.0384m-45.6704 0a45.6704 45.6704 0 1 0 91.3408 0 45.6704 45.6704 0 1 0-91.3408 0Z" fill="#76BFFF" p-id="2942"></path><path d="M222.7712 453.0688c-33.6384 0-61.0304-27.392-61.0304-61.0304s27.392-61.0304 61.0304-61.0304S283.8016 358.4 283.8016 392.0384s-27.3408 61.0304-61.0304 61.0304z m0-91.3408c-16.6912 0-30.3104 13.568-30.3104 30.3104 0 16.6912 13.568 30.3104 30.3104 30.3104 16.6912 0 30.3104-13.568 30.3104-30.3104 0-16.6912-13.568-30.3104-30.3104-30.3104zM429.5168 453.0688c-33.6384 0-61.0304-27.392-61.0304-61.0304s27.392-61.0304 61.0304-61.0304S490.5472 358.4 490.5472 392.0384c-0.0512 33.6384-27.392 61.0304-61.0304 61.0304z m0-91.3408c-16.6912 0-30.3104 13.568-30.3104 30.3104 0 16.6912 13.568 30.3104 30.3104 30.3104 16.6912 0 30.3104-13.568 30.3104-30.3104-0.0512-16.6912-13.6192-30.3104-30.3104-30.3104zM636.1088 453.0688c-33.6384 0-61.0304-27.392-61.0304-61.0304s27.392-61.0304 61.0304-61.0304 61.0304 27.392 61.0304 61.0304-27.392 61.0304-61.0304 61.0304z m0-91.3408c-16.6912 0-30.3104 13.568-30.3104 30.3104 0 16.6912 13.568 30.3104 30.3104 30.3104 16.6912 0 30.3104-13.568 30.3104-30.3104 0-16.6912-13.568-30.3104-30.3104-30.3104z" fill="#333333" p-id="2943"></path><path d="M186.8288 290.1504a12.8 12.8 0 0 1-12.8-12.8v-28.3136c0-23.808 19.3536-43.2128 43.2128-43.2128h97.6896a12.8 12.8 0 0 1 0 25.6H217.2416c-9.6768 0-17.6128 7.8848-17.6128 17.6128v28.3136a12.8 12.8 0 0 1-12.8 12.8zM383.8464 231.424h-21.1968a12.8 12.8 0 0 1 0-25.6h21.1968a12.8 12.8 0 0 1 0 25.6zM458.5984 802.7136H359.5776a12.8 12.8 0 0 1 0-25.6h99.0208a12.8 12.8 0 0 1 0 25.6zM306.0224 802.7136h-14.592a12.8 12.8 0 0 1 0-25.6h14.592a12.8 12.8 0 0 1 0 25.6z" fill="#FFFFFF" p-id="2944"></path></svg>