<?xml version="1.0" standalone="no"?><!DOCTYPE svg PUBLIC "-//W3C//DTD SVG 1.1//EN" "http://www.w3.org/Graphics/SVG/1.1/DTD/svg11.dtd"><svg t="1685966817358" class="icon" viewBox="0 0 1024 1024" version="1.1" xmlns="http://www.w3.org/2000/svg" p-id="2764" xmlns:xlink="http://www.w3.org/1999/xlink" width="200" height="200"><path d="M830.956 608.546c79.044-0.892 137.34-66.22 128.07-144.53C933.256 246.326 745.058 64 513.13 64 265.074 64 64 264.578 64 512c0 247.432 201.074 448 449.13 448 67.2 0 117.16-13.732 126.92-53.566 9.78-39.852-3.526-50.564-48.812-160.694-23.16-56.294 2.006-108.13 39.054-126.61 37.048-18.48 120.98-9.686 200.664-10.584z" fill="#FCBF28" p-id="2765"></path><path d="M570.434 317.218m-97.392 0a97.392 97.392 0 1 0 194.784 0 97.392 97.392 0 1 0-194.784 0Z" fill="#FF6363" p-id="2766"></path><path d="M317.218 453.566m-97.392 0a97.392 97.392 0 1 0 194.784 0 97.392 97.392 0 1 0-194.784 0Z" fill="#FFFFFF" p-id="2767"></path><path d="M395.13 726.26m-77.914 0a77.914 77.914 0 1 0 155.828 0 77.914 77.914 0 1 0-155.828 0Z" fill="#0091FF" p-id="2768"></path></svg>