<svg t="1690599583147" class="icon" viewBox="0 0 1024 1024" version="1.1" xmlns="http://www.w3.org/2000/svg" p-id="3644" width="200" height="200"><path d="M91.371875 792.415625v93.43125h186.853125v-93.43125H91.371875z m186.853125-560.56875v-93.43125H91.371875v93.43125h186.853125zM91.371875 278.5625h186.853125v467.146875H91.371875V278.5625z" fill="#349BFF" p-id="3645"></path><path d="M751.85 897.29375001l-24.178125-90.24375001 180.4875-48.365625 24.178125 90.24375-180.4875 48.36562499z m-157.171875-586.59375001L775.15625001 262.34374999 896.065625 713.5625l-180.4875 48.365625-120.9-451.228125z m-36.290625-135.365625l180.50625001-48.36562499 24.17812499 90.24374999-180.4875 48.365625-24.196875-90.24375zM371.646875 792.415625h186.8625v93.43125H371.646875v-93.43125z m0-513.853125h186.8625v467.146875H371.646875V278.5625z m0-140.146875h186.8625v93.43125H371.646875v-93.43125z" fill="#349BFF" p-id="3646"></path></svg>