<?xml version="1.0" standalone="no"?><!DOCTYPE svg PUBLIC "-//W3C//DTD SVG 1.1//EN" "http://www.w3.org/Graphics/SVG/1.1/DTD/svg11.dtd"><svg t="1683091933090" class="icon" viewBox="0 0 1024 1024" version="1.1" xmlns="http://www.w3.org/2000/svg" p-id="9830" xmlns:xlink="http://www.w3.org/1999/xlink" width="200" height="200"><path d="M891.3408 403.1488c-6.912-28.5184-33.1264-76.0832-60.2624-115.1488-11.9808-17.2032-38.4-12.9536-44.6976 7.0656-9.728 30.9248-25.2928 66.5088-52.2752 98.4576-4.9664 5.888-14.592 2.816-15.0528-4.8128-5.1712-79.1552-42.7008-283.904-307.3024-312.6272-18.2784-1.9968-32.4608 15.7184-26.5216 33.1264 19.968 58.3168 35.9424 170.496-55.3984 239.2576-3.6864 2.7648-8.9088 1.8432-11.776-1.792-30.464-38.8096-68.4032-62.6176-119.9616-72.2432-17.9712-3.328-33.1264 13.056-28.9792 30.8224 8.0384 34.4064 11.3664 93.0816-21.4528 172.9536-55.04 133.9904-118.4256 457.6256 386.4064 457.6256s367.0016-492.544 357.2736-532.6848zM301.9264 764.8256a40.12032 40.12032 0 0 1-27.4432 10.8032c-10.752 0-21.4528-4.3008-29.3376-12.7488-67.2768-71.936-38.0416-206.0288-34.4576-221.0816a40.1408 40.1408 0 0 1 48.3328-29.8496c21.5552 5.0688 34.9184 26.6752 29.9008 48.2816-6.3488 27.392-17.3056 113.3568 14.9504 147.8144a40.15104 40.15104 0 0 1-1.9456 56.7808z" fill="#F23D4F" p-id="9831"></path><path d="M882.7904 378.5216c-11.5712-27.2384-31.3856-61.2352-51.712-90.4704-11.9808-17.2032-38.4-12.9536-44.6976 7.0656-9.728 30.9248-25.2928 66.5088-52.2752 98.4576-4.9664 5.888-14.592 2.816-15.0528-4.8128-5.1712-79.1552-42.7008-283.904-307.3024-312.6272-18.2784-1.9968-32.4608 15.7184-26.5216 33.1264 19.968 58.3168 35.9424 170.496-55.3984 239.2576-3.6864 2.7648-8.9088 1.8432-11.776-1.792-30.464-38.8096-68.4032-62.6176-119.9616-72.2432-17.9712-3.328-33.1264 13.056-28.9792 30.8224 8.0384 34.4064 11.3664 93.0816-21.4528 172.9536-48.0256 116.9408-102.4 378.3168 220.2112 442.9312 280.6272-27.648 501.7088-257.9968 514.9184-542.6688zM301.9264 764.8256a40.12032 40.12032 0 0 1-27.4432 10.8032c-10.752 0-21.4528-4.3008-29.3376-12.7488-67.2768-71.936-38.0416-206.0288-34.4576-221.0816a40.1408 40.1408 0 0 1 48.3328-29.8496c21.5552 5.0688 34.9184 26.6752 29.9008 48.2816-6.3488 27.392-17.3056 113.3568 14.9504 147.8144a40.15104 40.15104 0 0 1-1.9456 56.7808z" fill="#FC4956" p-id="9832"></path><path d="M704.7168 305.8688c-26.2144-91.6992-97.792-208.5888-292.9664-229.7856-18.2784-1.9968-32.4608 15.7184-26.5216 33.1264 19.968 58.3168 35.9424 170.496-55.3984 239.2576-3.6864 2.7648-8.9088 1.8432-11.776-1.792-30.464-38.8096-68.4032-62.6176-119.9616-72.2432-17.9712-3.328-33.1264 13.056-28.9792 30.8224 8.0384 34.4064 11.3664 93.0816-21.4528 172.9536-24.0128 58.5216-49.664 153.1392-28.8768 241.2544 11.776 0.7168 23.6544 1.2288 35.6352 1.2288 21.0944 0 41.8816-1.2288 62.3616-3.4304-28.8256-72.2432-8.96-163.1744-6.0928-175.4112a40.1408 40.1408 0 0 1 48.3328-29.8496c21.5552 5.0688 34.9184 26.6752 29.9008 48.2816-6.0416 25.9584-16.0768 104.448 10.3424 141.9264 195.4304-50.9952 350.0544-202.7008 405.4528-396.3392z" fill="#FF5C64" p-id="9833"></path><path d="M411.7504 76.0832c-18.2784-1.9968-32.4608 15.7184-26.5216 33.1264 19.968 58.3168 35.9424 170.496-55.3984 239.2576-3.6864 2.7648-8.9088 1.8432-11.776-1.792-30.464-38.8096-68.4032-62.6176-119.9616-72.2432-17.9712-3.328-33.1264 13.056-28.9792 30.8224 8.0384 34.4064 11.3664 93.0816-21.4528 172.9536-3.2256 7.8336-6.4512 16.384-9.6256 25.3952 198.5536-45.2096 357.8368-193.4848 418.4064-385.6896-38.5024-20.3776-85.9648-35.4304-144.6912-41.8304z" fill="#FF716E" p-id="9834"></path></svg>