<?xml version="1.0" standalone="no"?><!DOCTYPE svg PUBLIC "-//W3C//DTD SVG 1.1//EN" "http://www.w3.org/Graphics/SVG/1.1/DTD/svg11.dtd"><svg height="800" node-id="1" sillyvg="true" template-height="800" template-width="800" version="1.1" viewBox="0 0 800 800" width="800" xmlns="http://www.w3.org/2000/svg" xmlns:xlink="http://www.w3.org/1999/xlink"><defs node-id="194"><linearGradient gradientUnits="userSpaceOnUse" id="SVGID_1_" node-id="20" spreadMethod="pad" x1="400.4573" x2="400.4573" y1="155.7037" y2="711.1953"><stop offset="0.00000009590021" stop-color="#f4f2fb"></stop><stop offset="1" stop-color="#e1eef5"></stop></linearGradient><linearGradient gradientUnits="userSpaceOnUse" id="SVGID_2_" node-id="24" spreadMethod="pad" x1="468.4751" x2="578.0139" y1="580.2024" y2="390.4757"><stop offset="0.0746" stop-color="#b4c9db"></stop><stop offset="0.9134" stop-color="#eaeef8"></stop><stop offset="1" stop-color="#ecf0f9"></stop></linearGradient><linearGradient gradientUnits="userSpaceOnUse" id="SVGID_3_" node-id="30" spreadMethod="pad" x1="115.5391" x2="115.5391" y1="537.0928" y2="399.9182"><stop offset="0.2267" stop-color="#d0dceb"></stop><stop offset="0.7893" stop-color="#ecf1fb"></stop></linearGradient><linearGradient gradientUnits="userSpaceOnUse" id="SVGID_4_" node-id="35" spreadMethod="pad" x1="115.541" x2="115.541" y1="415.1499" y2="566.2833"><stop offset="0" stop-color="#ecf1fb"></stop><stop offset="0.818" stop-color="#b6c9dd"></stop></linearGradient><linearGradient gradientUnits="userSpaceOnUse" id="SVGID_5_" node-id="40" spreadMethod="pad" x1="616.668" x2="616.668" y1="445.5709" y2="357.2464"><stop offset="0.2267" stop-color="#d0dceb"></stop><stop offset="0.7893" stop-color="#ecf1fb"></stop></linearGradient><linearGradient gradientUnits="userSpaceOnUse" id="SVGID_6_" node-id="45" spreadMethod="pad" x1="616.6692" x2="616.6692" y1="367.0538" y2="464.3661"><stop offset="0" stop-color="#ecf1fb"></stop><stop offset="0.818" stop-color="#b6c9dd"></stop></linearGradient><linearGradient gradientUnits="userSpaceOnUse" id="SVGID_7_" node-id="50" spreadMethod="pad" x1="673.3779" x2="673.3779" y1="541.1172" y2="506.7863"><stop offset="0.2267" stop-color="#d0dceb"></stop><stop offset="0.7893" stop-color="#ecf1fb"></stop></linearGradient><linearGradient gradientUnits="userSpaceOnUse" id="SVGID_8_" node-id="54" spreadMethod="pad" x1="673.4384" x2="673.4384" y1="511.121" y2="566.3845"><stop offset="0" stop-color="#ecf1fb"></stop><stop offset="0.818" stop-color="#b6c9dd"></stop></linearGradient><linearGradient gradientUnits="userSpaceOnUse" id="SVGID_9_" node-id="58" spreadMethod="pad" x1="462.5861" x2="427.8318" y1="82.9642" y2="143.1604"><stop offset="0" stop-color="#ffdb80"></stop><stop offset="1" stop-color="#ffbb24"></stop></linearGradient><linearGradient gradientUnits="userSpaceOnUse" id="SVGID_10_" node-id="62" spreadMethod="pad" x1="420.2489" x2="420.2489" y1="113.4304" y2="170.8844"><stop offset="0" stop-color="#f9fafe"></stop><stop offset="1" stop-color="#e5edf7"></stop></linearGradient><linearGradient gradientUnits="userSpaceOnUse" id="SVGID_11_" node-id="69" spreadMethod="pad" x1="546.4752" x2="400.4572" y1="470.0897" y2="324.0718"><stop offset="0.15" stop-color="#b6cadc"></stop><stop offset="1" stop-color="#dfe8f9"></stop></linearGradient><linearGradient gradientUnits="userSpaceOnUse" id="SVGID_12_" node-id="73" spreadMethod="pad" x1="301.5356" x2="301.5356" y1="621.5528" y2="352.7019"><stop offset="0" stop-color="#acc1d1"></stop><stop offset="0.7989" stop-color="#dfe8f9"></stop></linearGradient><linearGradient gradientUnits="userSpaceOnUse" id="SVGID_13_" node-id="77" spreadMethod="pad" x1="486.5404" x2="486.5404" y1="621.5528" y2="352.7019"><stop offset="0" stop-color="#c7d4e5"></stop><stop offset="0.6872" stop-color="#e8eff8"></stop></linearGradient><linearGradient gradientUnits="userSpaceOnUse" id="SVGID_14_" node-id="81" spreadMethod="pad" x1="301.5356" x2="301.5356" y1="529.4806" y2="379.9553"><stop offset="0.15" stop-color="#b0c3d6"></stop><stop offset="1" stop-color="#bfd0e1"></stop></linearGradient><linearGradient gradientUnits="userSpaceOnUse" id="SVGID_15_" node-id="86" spreadMethod="pad" x1="510.2111" x2="510.2111" y1="500.0175" y2="352.7019"><stop offset="0" stop-color="#c7d4e5"></stop><stop offset="0.6872" stop-color="#e8eff8"></stop></linearGradient><linearGradient gradientUnits="userSpaceOnUse" id="SVGID_16_" node-id="90" spreadMethod="pad" x1="239.8313" x2="329.4936" y1="497.6306" y2="342.3309"><stop offset="0" stop-color="#c7d4e5"></stop><stop offset="0.6872" stop-color="#e8eff8"></stop></linearGradient><linearGradient gradientUnits="userSpaceOnUse" id="SVGID_17_" node-id="94" spreadMethod="pad" x1="374.1048" x2="374.1048" y1="379.9553" y2="500.0175"><stop offset="0.0746" stop-color="#b4c9db"></stop><stop offset="1" stop-color="#c2d1e3"></stop></linearGradient><linearGradient gradientUnits="userSpaceOnUse" id="SVGID_18_" node-id="98" spreadMethod="pad" x1="394.6609" x2="436.396" y1="439.9864" y2="439.9864"><stop offset="0" stop-color="#acc1d1"></stop><stop offset="0.7989" stop-color="#dfe8f9"></stop></linearGradient><linearGradient gradientUnits="userSpaceOnUse" id="SVGID_19_" node-id="103" spreadMethod="pad" x1="579.7148" x2="555.7492" y1="269.9049" y2="245.9393"><stop offset="0.15" stop-color="#9fb6cc"></stop><stop offset="1" stop-color="#d5e1f2"></stop></linearGradient><linearGradient gradientUnits="userSpaceOnUse" id="SVGID_20_" node-id="107" spreadMethod="pad" x1="622.627" x2="567.9659" y1="250.4868" y2="195.8257"><stop offset="0" stop-color="#c3d1e0"></stop><stop offset="1" stop-color="#e8eff8"></stop></linearGradient><linearGradient gradientUnits="userSpaceOnUse" id="SVGID_21_" node-id="111" spreadMethod="pad" x1="602.2858" x2="584.9052" y1="260.3532" y2="230.2491"><stop offset="0.15" stop-color="#9fb6cc"></stop><stop offset="1" stop-color="#acc0d5"></stop></linearGradient><linearGradient gradientUnits="userSpaceOnUse" id="SVGID_22_" node-id="115" spreadMethod="pad" x1="632.1341" x2="607.7312" y1="256.5864" y2="214.3193"><stop offset="0.15" stop-color="#9fb6cc"></stop><stop offset="1" stop-color="#acc0d5"></stop></linearGradient><linearGradient gradientUnits="userSpaceOnUse" id="SVGID_23_" node-id="119" spreadMethod="pad" x1="585.666" x2="549.6448" y1="283.4148" y2="221.0242"><stop offset="0.15" stop-color="#b6cadc"></stop><stop offset="1" stop-color="#dfe8f9"></stop></linearGradient><linearGradient gradientUnits="userSpaceOnUse" id="SVGID_24_" node-id="124" spreadMethod="pad" x1="489.358" x2="423.8325" y1="354.9385" y2="289.413"><stop offset="0" stop-color="#b6cadc"></stop><stop offset="1" stop-color="#dfe8f9"></stop></linearGradient><linearGradient gradientTransform="matrix(-0.9572 -0.2896 -0.2896 0.9572 -4007.3665 -4526.562)" gradientUnits="userSpaceOnUse" id="SVGID_25_" node-id="130" spreadMethod="pad" x1="-5480.991" x2="-5480.991" y1="3513.3782" y2="3497.1086"><stop offset="0" stop-color="#4673bc"></stop><stop offset="0.652" stop-color="#6a94e0"></stop></linearGradient><linearGradient gradientTransform="matrix(-0.5763 0.8173 0.8173 0.5763 1134.0961 -6864.7065)" gradientUnits="userSpaceOnUse" id="SVGID_26_" node-id="135" spreadMethod="pad" x1="6421.7993" x2="6421.7993" y1="3506.532" y2="3490.2625"><stop offset="0" stop-color="#4673bc"></stop><stop offset="0.652" stop-color="#6a94e0"></stop></linearGradient><linearGradient gradientUnits="userSpaceOnUse" id="SVGID_27_" node-id="140" spreadMethod="pad" x1="-703.6019" x2="-748.7998" y1="373.6595" y2="373.6595"><stop offset="0" stop-color="#18264b"></stop><stop offset="0.652" stop-color="#2d3c65"></stop></linearGradient><linearGradient gradientTransform="matrix(-0.863 0.5052 0.5052 0.863 5331.1318 -2907.7546)" gradientUnits="userSpaceOnUse" id="SVGID_28_" node-id="144" spreadMethod="pad" x1="5966.3223" x2="5966.3223" y1="205.7551" y2="172.8719"><stop offset="0" stop-color="#f4b9a4"></stop><stop offset="0.652" stop-color="#fad1bb"></stop></linearGradient><linearGradient gradientTransform="matrix(-0.6566 0.7542 0.7542 0.6566 7322.7524 -4809.1138)" gradientUnits="userSpaceOnUse" id="SVGID_29_" node-id="148" spreadMethod="pad" x1="8481.629" x2="8437.291" y1="-1993.6285" y2="-1993.6285"><stop offset="0" stop-color="#4f5c7c"></stop><stop offset="1" stop-color="#274168"></stop></linearGradient><linearGradient gradientTransform="matrix(-0.7507 0.6606 0.6606 0.7507 6097.4653 -4988.2554)" gradientUnits="userSpaceOnUse" id="SVGID_30_" node-id="152" spreadMethod="pad" x1="7834.6714" x2="7923.6265" y1="173.6299" y2="173.6299"><stop offset="0" stop-color="#18264b"></stop><stop offset="0.652" stop-color="#2d3c65"></stop></linearGradient><linearGradient gradientUnits="userSpaceOnUse" id="SVGID_31_" node-id="156" spreadMethod="pad" x1="-741.6417" x2="-735.5364" y1="310.8765" y2="300.3019"><stop offset="0" stop-color="#f4b9a4"></stop><stop offset="0.652" stop-color="#fad1bb"></stop></linearGradient><linearGradient gradientUnits="userSpaceOnUse" id="SVGID_32_" node-id="160" spreadMethod="pad" x1="-718.6407" x2="-692.9955" y1="323.8196" y2="279.4009"><stop offset="0" stop-color="#fad96e"></stop><stop offset="0.5439" stop-color="#ffb32c"></stop></linearGradient><linearGradient gradientTransform="matrix(-1.0305 0.5351 0.4608 0.8875 4706.3623 -3084.8901)" gradientUnits="userSpaceOnUse" id="SVGID_33_" node-id="164" spreadMethod="pad" x1="4700.576" x2="4700.576" y1="1038.7113" y2="939.7097"><stop offset="0" stop-color="#fad96e"></stop><stop offset="1" stop-color="#ffb32c"></stop></linearGradient><linearGradient gradientUnits="userSpaceOnUse" id="SVGID_34_" node-id="170" spreadMethod="pad" x1="-738.7588" x2="-738.7588" y1="341.3171" y2="306.779"><stop offset="0" stop-color="#275c89"></stop><stop offset="1" stop-color="#013f7c"></stop></linearGradient><linearGradient gradientUnits="userSpaceOnUse" id="SVGID_35_" node-id="174" spreadMethod="pad" x1="-751.0151" x2="-751.0151" y1="309.8252" y2="306.779"><stop offset="0" stop-color="#448bb7"></stop><stop offset="1" stop-color="#06508c"></stop></linearGradient><linearGradient gradientUnits="userSpaceOnUse" id="SVGID_36_" node-id="178" spreadMethod="pad" x1="-727.5146" x2="-727.5146" y1="339.7636" y2="306.779"><stop offset="0" stop-color="#448bb7"></stop><stop offset="1" stop-color="#06508c"></stop></linearGradient><linearGradient gradientUnits="userSpaceOnUse" id="SVGID_37_" node-id="182" spreadMethod="pad" x1="-726.2365" x2="-719.121" y1="339.8415" y2="327.5172"><stop offset="0" stop-color="#f4b9a4"></stop><stop offset="0.652" stop-color="#fad1bb"></stop></linearGradient><linearGradient gradientUnits="userSpaceOnUse" id="SVGID_38_" node-id="186" spreadMethod="pad" x1="-702.8637" x2="-665.1315" y1="350.2833" y2="284.9291"><stop offset="0" stop-color="#fad96e"></stop><stop offset="0.5439" stop-color="#ffb32c"></stop></linearGradient></defs><g node-id="552"><g node-id="553"><path d="M 483.72 197.06 C 445.35 227.35 362.98 230.87 302.55 194.84 C 242.12 158.81 130.55 163.46 100.33 229.71 C 70.11 295.96 137.52 361.04 113.11 408.69 C 88.70 456.34 7.35 523.73 63.13 605.09 C 118.91 686.45 189.73 665.71 232.35 657.54 C 316.52 641.41 422.14 773.21 540.97 673.67 C 609.44 616.32 711.41 715.76 751.14 592.31 C 783.92 490.45 665.47 452.81 701.17 384.28 C 739.13 311.40 731.84 225.04 690.71 183.22 C 652.40 144.26 549.96 144.76 483.72 197.06 Z" fill="url(#SVGID_1_)" fill-rule="nonzero" group-id="1,2" node-id="432" stroke="none" target-height="628.95" target-width="776.57" target-x="7.35" target-y="144.26"></path><path d="M 543.15 413.76 L 697.50 459.46 L 578.43 571.46 L 434.79 560.75 L 378.87 459.46 Z" fill="url(#SVGID_2_)" fill-rule="nonzero" group-id="1,2" node-id="434" stroke="none" target-height="157.70001" target-width="318.63" target-x="378.87" target-y="413.76"></path><g node-id="556"><path d="M 116.32 400.16 C 116.32 400.16 116.10 399.59 115.80 400.20 C 113.10 405.69 88.65 465.16 86.71 511.06 C 86.71 511.06 82.63 537.43 116.82 537.08 C 145.36 536.79 144.60 512.48 144.50 504.29 C 144.12 471.07 116.32 400.16 116.32 400.16 Z" fill="url(#SVGID_3_)" fill-rule="nonzero" group-id="1,2,5" node-id="438" stroke="none" target-height="137.84" target-width="62.730003" target-x="82.63" target-y="399.59"></path><g node-id="563"><path d="M 115.54 566.28 C 114.99 566.28 114.54 565.83 114.54 565.28 L 114.54 416.15 C 114.54 415.60 114.99 415.15 115.54 415.15 C 116.09 415.15 116.54 415.60 116.54 416.15 L 116.54 565.28 C 116.54 565.84 116.09 566.28 115.54 566.28 Z" fill="url(#SVGID_4_)" fill-rule="nonzero" group-id="1,2,5,12" node-id="442" stroke="none" target-height="151.13004" target-width="2" target-x="114.54" target-y="415.15"></path></g></g><g node-id="557"><path d="M 617.17 357.40 C 617.17 357.40 617.03 357.03 616.84 357.43 C 615.10 360.96 599.36 399.26 598.11 428.81 C 598.11 428.81 595.48 445.79 617.50 445.57 C 635.88 445.39 635.39 429.73 635.32 424.46 C 635.07 403.06 617.17 357.40 617.17 357.40 Z" fill="url(#SVGID_5_)" fill-rule="nonzero" group-id="1,2,6" node-id="448" stroke="none" target-height="88.76001" target-width="40.400024" target-x="595.48" target-y="357.03"></path><g node-id="564"><path d="M 616.67 464.37 C 616.31 464.37 616.03 464.08 616.03 463.73 L 616.03 367.70 C 616.03 367.34 616.32 367.06 616.67 367.06 C 617.02 367.06 617.31 367.35 617.31 367.70 L 617.31 463.72 C 617.31 464.08 617.02 464.37 616.67 464.37 Z" fill="url(#SVGID_6_)" fill-rule="nonzero" group-id="1,2,6,13" node-id="452" stroke="none" target-height="97.31" target-width="1.2799683" target-x="616.03" target-y="367.06"></path></g></g><g node-id="558"><path d="M 690.55 523.95 C 690.55 533.43 682.86 541.12 673.38 541.12 C 663.90 541.12 656.21 533.43 656.21 523.95 C 656.21 514.47 663.90 506.78 673.38 506.78 C 682.86 506.78 690.55 514.47 690.55 523.95 Z" fill="url(#SVGID_7_)" fill-rule="nonzero" group-id="1,2,7" node-id="458" stroke="none" target-height="34.339996" target-width="34.339966" target-x="656.21" target-y="506.78"></path><path d="M 673.44 566.38 C 673.15 566.38 672.91 566.14 672.91 565.85 L 672.91 511.64 C 672.91 511.35 673.15 511.11 673.44 511.11 C 673.73 511.11 673.97 511.35 673.97 511.64 L 673.97 565.85 C 673.97 566.15 673.73 566.38 673.44 566.38 Z" fill="url(#SVGID_8_)" fill-rule="nonzero" group-id="1,2,7" node-id="460" stroke="none" target-height="55.27002" target-width="1.0599976" target-x="672.91" target-y="511.11"></path></g><path d="M 479.96 113.06 C 479.96 132.25 464.40 147.81 445.21 147.81 C 426.02 147.81 410.46 132.25 410.46 113.06 C 410.46 93.87 426.02 78.31 445.21 78.31 C 464.40 78.31 479.96 93.87 479.96 113.06 Z" fill="url(#SVGID_9_)" fill-rule="nonzero" group-id="1,2" node-id="463" stroke="none" target-height="69.5" target-width="69.5" target-x="410.46" target-y="78.31"></path><path d="M 464.99 132.01 L 430.42 132.01 C 428.19 121.40 418.77 113.43 407.49 113.43 C 396.21 113.43 386.80 121.40 384.56 132.01 L 375.51 132.01 C 364.78 132.01 356.07 140.71 356.07 151.45 L 356.07 151.45 C 356.07 162.18 364.77 170.89 375.51 170.89 L 464.98 170.89 C 475.71 170.89 484.42 162.19 484.42 151.45 L 484.42 151.45 C 484.42 140.71 475.72 132.01 464.99 132.01 Z" fill="url(#SVGID_10_)" fill-rule="nonzero" group-id="1,2" node-id="465" stroke="none" target-height="57.46" target-width="128.35" target-x="356.07" target-y="113.43"></path></g><g node-id="554"><g node-id="559"><path d="M 208.41 352.70 L 394.66 329.87 L 394.66 467.61 L 208.41 441.83 Z" fill="#c7d4e5" fill-rule="nonzero" group-id="1,3,8" node-id="472" stroke="none" target-height="137.73999" target-width="186.25" target-x="208.41" target-y="329.87"></path><path d="M 578.42 352.70 L 394.66 329.87 L 394.66 467.61 L 578.42 438.14 Z" fill="url(#SVGID_11_)" fill-rule="nonzero" group-id="1,3,8" node-id="474" stroke="none" target-height="137.73999" target-width="183.75998" target-x="394.66" target-y="329.87"></path><path d="M 394.66 621.55 L 208.41 574.29 L 208.41 352.70 L 394.66 379.96 Z" fill="url(#SVGID_12_)" fill-rule="nonzero" group-id="1,3,8" node-id="476" stroke="none" target-height="268.84998" target-width="186.25" target-x="208.41" target-y="352.7"></path><path d="M 578.42 352.70 L 578.42 571.47 L 394.66 621.55 L 394.66 379.96 Z" fill="url(#SVGID_13_)" fill-rule="nonzero" group-id="1,3,8" node-id="478" stroke="none" target-height="268.84998" target-width="183.75998" target-x="394.66" target-y="352.7"></path><path d="M 208.41 441.83 L 208.41 487.13 L 361.65 529.48 L 394.66 379.96 L 208.41 406.47 Z" fill="url(#SVGID_14_)" fill-rule="nonzero" group-id="1,3,8" node-id="480" stroke="none" target-height="149.51999" target-width="186.25" target-x="208.41" target-y="379.96"></path><path d="M 578.42 487.13 L 429.54 529.48 L 394.66 379.96 L 578.42 442.56 Z" fill="#bbcbdd" fill-rule="nonzero" group-id="1,3,8" node-id="482" stroke="none" target-height="149.51999" target-width="183.75998" target-x="394.66" target-y="379.96"></path><path d="M 625.76 452.88 L 436.40 500.02 L 394.66 379.96 L 578.42 352.70 Z" fill="url(#SVGID_15_)" fill-rule="nonzero" group-id="1,3,8" node-id="484" stroke="none" target-height="147.31998" target-width="231.1" target-x="394.66" target-y="352.7"></path><path d="M 162.31 452.88 L 353.55 500.02 L 394.66 379.96 L 208.41 352.70 Z" fill="url(#SVGID_16_)" fill-rule="nonzero" group-id="1,3,8" node-id="486" stroke="none" target-height="147.31998" target-width="232.35" target-x="162.31" target-y="352.7"></path><path d="M 353.55 500.02 L 360.71 500.02 L 394.66 379.96 Z" fill="url(#SVGID_17_)" fill-rule="nonzero" group-id="1,3,8" node-id="488" stroke="none" target-height="120.06" target-width="41.110016" target-x="353.55" target-y="379.96"></path><path d="M 436.40 500.02 L 428.67 500.02 L 394.66 379.96 Z" fill="url(#SVGID_18_)" fill-rule="nonzero" group-id="1,3,8" node-id="490" stroke="none" target-height="120.06" target-width="41.73999" target-x="394.66" target-y="379.96"></path></g><g node-id="560"><path d="M 557.95 243.74 L 565.79 280.91 L 567.58 282.04 L 588.42 253.68 Z" fill="url(#SVGID_19_)" fill-rule="nonzero" group-id="1,3,9" node-id="495" stroke="none" target-height="38.300003" target-width="30.46997" target-x="557.95" target-y="243.74"></path><path d="M 638.11 196.78 L 533.37 230.42 L 601.41 271.70 Z" fill="url(#SVGID_20_)" fill-rule="nonzero" group-id="1,3,9" node-id="497" stroke="none" target-height="74.92001" target-width="104.73999" target-x="533.37" target-y="196.78"></path><path d="M 558.39 245.58 L 621.13 209.34 L 565.59 250.01 L 566.06 281.27 Z" fill="url(#SVGID_21_)" fill-rule="nonzero" group-id="1,3,9" node-id="499" stroke="none" target-height="71.92999" target-width="62.73999" target-x="558.39" target-y="209.34"></path><path d="M 638.11 196.78 L 638.11 199.22 L 601.76 274.12 L 601.41 271.70 Z" fill="url(#SVGID_22_)" fill-rule="nonzero" group-id="1,3,9" node-id="501" stroke="none" target-height="77.34" target-width="36.700012" target-x="601.41" target-y="196.78"></path><path d="M 533.37 230.42 L 533.37 231.83 L 557.06 246.28 L 564.51 281.21 L 567.58 282.04 L 567.29 252.84 L 601.76 274.12 L 601.41 271.70 L 565.59 250.01 L 566.03 280.17 L 558.39 245.58 Z" fill="url(#SVGID_23_)" fill-rule="nonzero" group-id="1,3,9" node-id="503" stroke="none" target-height="51.62001" target-width="68.390015" target-x="533.37" target-y="230.42"></path></g><path d="M 354.79 362.26 C 354.35 362.26 353.95 361.96 353.84 361.51 C 353.71 360.98 354.04 360.46 354.56 360.33 C 400.13 349.42 434.92 336.47 457.99 321.85 C 464.20 317.91 469.20 314.07 473.21 310.40 C 460.74 310.86 449.60 308.74 442.03 302.28 C 442.00 302.25 441.97 302.23 441.94 302.20 C 433.86 293.38 434.46 280.72 443.47 269.96 C 451.98 259.79 467.37 253.01 479.11 260.45 C 485.98 264.80 492.59 273.86 490.53 286.23 C 489.57 291.98 486.48 299.51 478.45 308.00 C 513.98 304.69 558.05 283.21 558.67 282.91 C 559.16 282.67 559.74 282.87 559.98 283.36 C 560.22 283.85 560.02 284.43 559.53 284.67 C 556.94 285.94 512.06 307.81 476.24 310.24 C 459.69 326.30 425.26 345.41 355.00 362.23 C 354.94 362.25 354.87 362.26 354.79 362.26 Z M 443.35 300.83 C 450.93 307.26 462.53 309.07 475.48 308.23 C 484.43 299.35 487.66 291.58 488.61 285.91 C 490.51 274.49 484.41 266.12 478.07 262.10 C 467.27 255.26 452.96 261.68 444.98 271.21 C 438.36 279.14 434.45 291.06 443.35 300.83 Z" fill="url(#SVGID_24_)" fill-rule="nonzero" group-id="1,3,10" node-id="508" stroke="none" target-height="109.250015" target-width="206.50998" target-x="353.71" target-y="253.01"></path></g><g node-id="555"><g node-id="562"><path d="M 244.65 413.56 C 244.65 413.56 237.96 417.93 229.20 409.64 C 222.49 411.03 214.41 411.31 209.09 410.72 C 203.77 410.12 201.57 415.51 201.85 417.26 C 208.68 418.99 227.36 427.00 241.90 427.16 C 244.08 417.58 244.65 413.56 244.65 413.56 Z" fill="url(#SVGID_25_)" fill-rule="nonzero" group-id="1,4,11" node-id="516" stroke="none" target-height="17.519989" target-width="43.079987" target-x="201.57" target-y="409.64"></path><path d="M 241.71 430.67 L 242.48 426.51 C 242.48 426.51 226.37 424.52 201.70 413.75 C 200.75 415.69 200.15 416.61 200.15 416.61 C 200.15 416.61 218.56 425.79 241.71 430.67 Z" fill="#d4e4fe" fill-rule="nonzero" group-id="1,4,11" node-id="518" stroke="none" target-height="16.920013" target-width="42.33" target-x="200.15" target-y="413.75"></path><path d="M 296.99 379.01 C 296.99 379.01 299.03 386.74 288.41 392.44 C 287.62 399.25 285.34 407.00 283.10 411.86 C 280.86 416.72 285.28 420.51 287.02 420.79 C 290.81 414.85 304.30 399.65 309.03 385.89 C 300.63 380.82 296.99 379.01 296.99 379.01 Z" fill="url(#SVGID_26_)" fill-rule="nonzero" group-id="1,4,11" node-id="520" stroke="none" target-height="41.78" target-width="28.170013" target-x="280.86" target-y="379.01"></path><path d="M 312.31 387.20 L 308.60 385.16 C 308.60 385.16 301.64 399.82 283.65 419.85 C 285.20 421.36 285.87 422.22 285.87 422.22 C 285.87 422.22 300.38 407.63 312.31 387.20 Z" fill="#d4e4fe" fill-rule="nonzero" group-id="1,4,11" node-id="522" stroke="none" target-height="37.059998" target-width="28.660004" target-x="283.65" target-y="385.16"></path><path d="M 263.65 331.09 C 263.65 331.09 244.75 323.90 238.88 357.07 C 233.01 390.24 228.38 411.52 228.38 411.52 L 243.30 416.88 C 243.30 416.88 262.99 369.88 273.34 348.70 C 275.39 328.16 263.65 331.09 263.65 331.09 Z" fill="url(#SVGID_27_)" fill-rule="nonzero" group-id="1,4,11" node-id="524" stroke="none" target-height="92.98001" target-width="47.01001" target-x="228.38" target-y="323.9"></path><path d="M 256.67 265.16 C 256.67 265.16 263.77 278.55 274.59 279.95 C 275.79 280.15 276.93 279.84 278.71 277.24 C 280.50 274.64 283.66 279.98 286.16 283.09 C 288.66 286.21 297.49 271.72 297.33 271.58 C 297.17 271.44 282.63 259.65 277.96 255.05 C 273.28 250.47 256.67 265.16 256.67 265.16 Z" fill="url(#SVGID_28_)" fill-rule="nonzero" group-id="1,4,11" node-id="526" stroke="none" target-height="35.73999" target-width="40.819977" target-x="256.67" target-y="250.47"></path><path d="M 254.49 250.74 C 254.49 250.74 256.84 241.48 264.07 244.70 C 270.82 237.48 278.22 242.12 279.98 249.20 C 280.39 250.65 282.03 251.85 283.71 252.99 C 285.39 254.13 292.86 260.09 285.23 270.40 C 282.69 273.62 277.63 270.59 276.69 267.00 C 275.75 263.41 271.83 260.98 271.82 265.03 C 271.81 269.08 273.04 268.83 272.60 269.24 C 272.16 269.66 269.81 268.28 268.60 265.39 C 267.39 262.50 265.91 261.50 264.88 265.90 C 263.85 270.30 253.57 282.02 243.31 273.11 C 233.06 264.21 239.94 251.97 254.49 250.74 Z" fill="url(#SVGID_29_)" fill-rule="nonzero" group-id="1,4,11" node-id="528" stroke="none" target-height="44.539993" target-width="59.799988" target-x="233.06" target-y="237.48"></path><path d="M 313.17 332.57 C 313.17 332.57 297.88 332.97 269.14 330.03 C 242.53 327.31 242.49 339.48 242.72 346.76 C 243.30 364.69 291.07 393.27 291.07 393.27 L 299.39 381.74 C 299.39 381.74 288.92 370.03 277.87 360.91 C 291.17 368.07 335.37 380.86 346.66 359.01 C 365.36 322.84 313.17 332.57 313.17 332.57 Z" fill="url(#SVGID_30_)" fill-rule="nonzero" group-id="1,4,11" node-id="530" stroke="none" target-height="70.42999" target-width="122.86998" target-x="242.49" target-y="322.84"></path><path d="M 244.55 310.76 C 240.82 308.21 237.93 306.16 237.52 305.91 C 236.40 305.21 233.45 305.63 232.19 308.02 C 231.07 309.70 230.45 306.81 230.79 305.21 C 231.14 303.54 232.85 296.60 237.76 298.70 C 239.83 299.59 243.36 301.43 246.88 303.34 L 244.55 310.76 Z" fill="url(#SVGID_31_)" fill-rule="nonzero" group-id="1,4,11" node-id="532" stroke="none" target-height="14.160004" target-width="16.430008" target-x="230.45" target-y="296.6"></path><path d="M 246.55 302.79 C 252.59 306.02 259.17 309.73 260.50 310.34 C 262.58 311.30 264.82 312.90 267.70 308.10 C 270.58 303.30 282.20 282.90 288.60 282.90 C 295.00 282.90 300.93 294.02 295.74 301.01 C 295.74 301.01 277.11 326.18 267.18 326.16 C 256.97 326.14 248.63 315.97 242.93 310.35 L 246.55 302.79 Z" fill="url(#SVGID_32_)" fill-rule="nonzero" group-id="1,4,11" node-id="534" stroke="none" target-height="43.28" target-width="58" target-x="242.93" target-y="282.9"></path><path d="M 293.48 265.24 C 293.48 265.24 284.07 279.99 281.15 282.30 C 283.24 285.48 285.12 287.58 285.12 287.58 C 285.12 287.58 286.19 297.92 298.52 314.58 C 307.41 326.59 305.96 336.43 305.96 336.43 C 305.96 336.43 323.97 344.35 351.31 346.76 C 349.42 309.78 335.73 274.24 302.49 270.44 C 298.50 265.10 293.48 265.24 293.48 265.24 Z" fill="url(#SVGID_33_)" fill-rule="nonzero" group-id="1,4,11" node-id="536" stroke="none" target-height="81.66" target-width="70.16" target-x="281.15" target-y="265.1"></path><path d="M 243.59 293.84 L 243.59 293.84 C 242.89 293.35 241.92 293.50 241.39 294.17 L 228.88 310.25 L 230.20 311.33 L 243.86 296.24 C 244.52 295.53 244.39 294.40 243.59 293.84 Z" fill="#f59743" fill-rule="nonzero" group-id="1,4,11" node-id="538" stroke="none" target-height="17.97998" target-width="15.639999" target-x="228.88" target-y="293.35"></path><path d="M 241.01 302.16 C 241.01 302.16 234.47 300.30 233.93 301.32 C 233.39 302.34 237.29 304.74 238.85 305.70 C 240.41 306.66 243.35 303.18 241.01 302.16 Z" fill="#f6d1ba" fill-rule="nonzero" group-id="1,4,11" node-id="540" stroke="none" target-height="6.360016" target-width="9.960007" target-x="233.39" target-y="300.3"></path><path d="M 257.70 331.63 L 239.89 306.78 L 213.96 308.14 L 212.43 309.83 L 234.29 339.68 L 264.40 341.32 Z" fill="url(#SVGID_34_)" fill-rule="nonzero" group-id="1,4,11" node-id="542" stroke="none" target-height="34.54001" target-width="51.97" target-x="212.43" target-y="306.78"></path><path d="M 239.89 306.78 L 237.88 308.48 L 212.43 309.83 L 213.96 308.14 Z" fill="url(#SVGID_35_)" fill-rule="nonzero" group-id="1,4,11" node-id="544" stroke="none" target-height="3.0499878" target-width="27.460007" target-x="212.43" target-y="306.78"></path><path d="M 259.72 339.76 L 237.88 308.48 L 239.89 306.78 L 261.44 336.92 Z" fill="url(#SVGID_36_)" fill-rule="nonzero" group-id="1,4,11" node-id="546" stroke="none" target-height="32.98001" target-width="23.559998" target-x="237.88" target-y="306.78"></path><path d="M 248.22 328.59 C 251.50 330.51 255.42 330.11 255.18 329.07 C 254.94 328.03 254.86 326.51 255.98 326.67 C 257.58 327.47 258.86 329.07 260.78 331.15 C 261.29 331.70 263.58 332.17 266.72 332.52 L 266.72 342.25 C 263.02 341.06 260.15 340.00 258.98 339.43 C 254.54 337.27 251.82 340.11 245.73 336.83 C 239.65 333.55 240.53 327.46 241.49 326.50 C 242.46 325.55 244.94 326.67 248.22 328.59 Z" fill="url(#SVGID_37_)" fill-rule="nonzero" group-id="1,4,11" node-id="548" stroke="none" target-height="16.700012" target-width="27.070007" target-x="239.65" target-y="325.55"></path><path d="M 260.34 328.51 C 268.82 329.59 287.32 329.78 290.24 328.75 C 294.27 327.33 299.52 305.98 301.29 298.73 C 302.07 295.54 305.97 283.53 317.62 288.28 C 327.63 292.37 323.74 303.89 319.66 315.06 C 315.58 326.23 306.45 341.96 299.85 344.96 C 294.33 347.47 268.19 344.63 258.79 341.32 L 260.34 328.51 Z" fill="url(#SVGID_38_)" fill-rule="nonzero" group-id="1,4,11" node-id="550" stroke="none" target-height="63.940002" target-width="68.84" target-x="258.79" target-y="283.53"></path></g></g></g></svg>