<?xml version="1.0" standalone="no"?><!DOCTYPE svg PUBLIC "-//W3C//DTD SVG 1.1//EN" "http://www.w3.org/Graphics/SVG/1.1/DTD/svg11.dtd"><svg t="1683874705575" class="icon" viewBox="0 0 1024 1024" version="1.1" xmlns="http://www.w3.org/2000/svg" p-id="4346" xmlns:xlink="http://www.w3.org/1999/xlink" width="200" height="200"><path d="M908.2368 463.8208l-156.5696 441.856c-18.8928 53.3504-77.568 81.152-130.816 61.952l-369.152-132.8128c-58.9312-21.1968-85.0432-89.9584-55.0912-144.9472l38.4512-70.5536 278.7328 132.0448 394.4448-287.5392z" fill="#7A7AF9" p-id="4347"></path><path d="M117.2992 450.4064l374.784-370.4832c19.968-19.712 47.616-29.5936 75.5712-26.9824l271.2576 25.6c45.7728 4.3008 81.6128 41.216 84.6336 87.04l17.152 259.7888c1.792 27.3408-8.2944 54.1184-27.6992 73.4208l-373.248 371.712c-40.2432 40.0896-105.2672 40.192-145.664 0.3072L117.3504 597.504c-41.0112-40.448-41.0112-106.5984-0.0512-147.0976z" fill="#CCDAFF" p-id="4348"></path><path d="M767.0784 227.2256m-60.1088 0a60.1088 60.1088 0 1 0 120.2176 0 60.1088 60.1088 0 1 0-120.2176 0Z" fill="#7A7AF9" p-id="4349"></path><path d="M696.2176 415.5392l-117.9648-4.2496-4.4032-116.1728a33.26464 33.26464 0 0 0-34.5088-32 33.29024 33.29024 0 0 0-32 34.5088l3.584 94.9248-37.376-37.7344a33.24928 33.24928 0 0 0-47.0528-0.2048 33.24928 33.24928 0 0 0-0.2048 47.0528l57.7536 58.2656L450.56 493.8752 393.1136 435.9168a33.24928 33.24928 0 0 0-47.0528-0.2048 33.24928 33.24928 0 0 0-0.2048 47.0528l58.0096 58.5216-36.0448 36.608a33.24928 33.24928 0 0 0 0.3584 47.0528 33.11104 33.11104 0 0 0 23.3472 9.5744c8.6016 0 17.2032-3.328 23.7056-9.9328l35.4304-35.9936 55.9104 56.4224a33.1776 33.1776 0 0 0 23.6544 9.8304 33.24928 33.24928 0 0 0 23.6544-56.6784l-56.5248-57.0368 33.4336-33.9456 56.2176 56.7296a33.1776 33.1776 0 0 0 23.6544 9.8304 33.24928 33.24928 0 0 0 23.6544-56.6784l-38.1952-38.5024 97.6384 3.5328h1.2288c17.8176 0 32.6144-14.1312 33.2288-32.0512a33.2288 33.2288 0 0 0-32-34.5088z" fill="#7A7AF9" p-id="4350"></path></svg>