<?xml version="1.0" standalone="no"?><!DOCTYPE svg PUBLIC "-//W3C//DTD SVG 1.1//EN" "http://www.w3.org/Graphics/SVG/1.1/DTD/svg11.dtd"><svg t="1686229474378" class="icon" viewBox="0 0 1024 1024" version="1.1" xmlns="http://www.w3.org/2000/svg" p-id="3567" xmlns:xlink="http://www.w3.org/1999/xlink" width="200" height="200"><path d="M512 58.181818C260.654545 58.181818 58.181818 260.654545 58.181818 512S260.654545 965.818182 512 965.818182 965.818182 763.345455 965.818182 512 763.345455 58.181818 512 58.181818z m281.6 467.781818c-6.981818 6.981818-16.290909 9.309091-25.6 9.309091s-18.618182-2.327273-25.6-9.309091l-195.490909-195.490909V768c0 18.618182-16.290909 34.909091-34.909091 34.909091s-34.909091-16.290909-34.909091-34.909091V330.472727l-195.490909 195.490909c-13.963636 13.963636-34.909091 13.963636-48.872727 0s-13.963636-34.909091 0-48.872727l232.727272-235.054545c25.6-25.6 67.490909-25.6 93.09091 0l235.054545 235.054545c11.636364 13.963636 11.636364 34.909091 0 48.872727z" fill="#539dfd" p-id="3568" data-spm-anchor-id="a313x.7781069.0.i2" class="selected"></path></svg>