<?xml version="1.0" standalone="no"?><!DOCTYPE svg PUBLIC "-//W3C//DTD SVG 1.1//EN" "http://www.w3.org/Graphics/SVG/1.1/DTD/svg11.dtd"><svg t="1682429182185" class="icon" viewBox="0 0 1024 1024" version="1.1" xmlns="http://www.w3.org/2000/svg" p-id="19350" xmlns:xlink="http://www.w3.org/1999/xlink" width="200" height="200"><path d="M519.253333 971.178667c-80.384 0-154.154667-25.813333-201.685333-64.384-24.106667 6.954667-54.997333 18.048-74.453333 31.872-16.682667 11.776-14.592 23.808-11.605334 28.672 13.226667 21.333333 226.261333 13.653333 287.786667 6.997333v-3.157333z" fill="#FAAD08" p-id="19351"></path><path d="M504.746667 971.178667c80.426667 0 154.24-25.813333 201.728-64.384 24.149333 6.954667 55.04 18.048 74.496 31.872 16.64 11.776 14.592 23.808 11.562666 28.672-13.184 21.333333-226.218667 13.653333-287.744 6.997333v-3.157333z" fill="#FAAD08" p-id="19352"></path><path d="M505.258667 473.173333c132.352-0.853333 238.378667-26.581333 274.346666-36.437333a34.005333 34.005333 0 0 0 13.141334-6.570667c0-1.194667 0.512-21.589333 0.512-32.128C793.258667 220.8 709.888 42.666667 504.789333 42.666667S216.277333 220.8 216.277333 398.08c0 10.496 0.512 30.890667 0.554667 32.085333 0 0 3.712 3.968 10.538667 5.845334 33.194667 9.301333 141.226667 36.266667 276.906666 37.205333h0.981334zM869.461333 623.061333c-8.106667-26.922667-19.242667-58.282667-30.506666-88.448 0 0-6.485333-0.810667-9.728 0.170667-101.034667 30.122667-223.445333 49.322667-316.757334 48.170667h-0.938666c-92.8 1.152-214.4-17.834667-315.050667-47.658667-3.84-1.152-11.434667-0.682667-11.434667-0.682667a1541.248 1541.248 0 0 0-30.506666 88.448c-38.826667 128.298667-26.282667 181.418667-16.682667 182.613334 20.565333 2.56 80-96.597333 80-96.597334 0 100.693333 88.618667 255.402667 291.413333 256.853334h5.418667c202.837333-1.450667 291.413333-156.16 291.413333-256.853334 0 0 59.477333 99.114667 80.042667 96.597334 9.6-1.194667 22.186667-54.314667-16.64-182.613334" fill="#000000" p-id="19353"></path><path d="M442.325333 310.613333c-27.989333 1.28-51.925333-31.018667-53.418666-72.106666-1.493333-41.173333 19.925333-75.52 47.914666-76.8 27.946667-1.28 51.882667 31.018667 53.376 72.106666 1.536 41.173333-19.925333 75.52-47.872 76.8z m207.274667-72.106666c-1.493333 41.088-25.429333 73.386667-53.418667 72.106666-27.946667-1.28-49.408-35.626667-47.872-76.8 1.536-41.088 25.429333-73.386667 53.376-72.106666 27.989333 1.28 49.450667 35.626667 47.914667 76.8" fill="#FFFFFF" p-id="19354"></path><path d="M692.608 363.946667c-7.338667-18.176-81.322667-38.4-172.885333-38.4h-0.981334c-91.562667 0-165.546667 20.224-172.842666 38.4a6.613333 6.613333 0 0 0 0.426666 6.101333c6.229333 10.069333 88.32 59.818667 172.416 59.818667h0.981334c84.053333 0 166.229333-49.749333 172.373333-59.818667a6.698667 6.698667 0 0 0 0.512-6.101333" fill="#FAAD08" p-id="19355"></path><path d="M475.648 248.192c1.28 16.384-7.381333 30.933333-19.328 32.512-11.946667 1.578667-22.613333-10.410667-23.893333-26.794667-1.28-16.384 7.424-30.933333 19.328-32.512 11.946667-1.621333 22.656 10.368 23.893333 26.794667z m73.344 8.149333c2.56-4.266667 19.882667-26.581333 55.765333-18.432 9.429333 2.133333 13.781333 5.290667 14.72 6.528 1.365333 1.792 1.706667 4.394667 0.341334 7.893334-2.730667 6.954667-8.362667 6.784-11.52 5.418666-1.962667-0.853333-26.965333-16.384-50.005334 6.741334-1.578667 1.621333-4.437333 2.133333-7.125333 0.256-2.688-1.877333-3.797333-5.717333-2.176-8.405334" fill="#000000" p-id="19356"></path><path d="M512.426667 586.666667h-0.938667c-63.786667 0.768-141.098667-7.765333-215.936-22.613334-6.4 37.376-10.282667 84.394667-6.954667 140.458667 8.405333 141.738667 91.904 230.826667 220.757334 232.106667h5.248c128.853333-1.28 212.394667-90.368 220.757333-232.106667a615.68 615.68 0 0 0-6.954667-140.501333c-74.88 14.890667-152.192 23.424-215.978666 22.613333" fill="#FFFFFF" p-id="19357"></path><path d="M330.837333 578.944v141.781333s65.152 13.141333 130.432 4.053334V593.92a1203.541333 1203.541333 0 0 1-130.432-15.018667" fill="#EB1C26" p-id="19358"></path><path d="M797.013333 429.909333s-122.325333 41.642667-284.586666 42.837334h-0.938667c-161.962667-1.194667-284.16-42.709333-284.586667-42.837334l-40.96 110.293334c102.485333 33.365333 229.504 54.826667 325.546667 53.589333h0.981333c96 1.28 223.061333-20.224 325.546667-53.589333l-40.96-110.293334z" fill="#EB1C26" p-id="19359"></path></svg>