<?xml version="1.0" standalone="no"?><!DOCTYPE svg PUBLIC "-//W3C//DTD SVG 1.1//EN" "http://www.w3.org/Graphics/SVG/1.1/DTD/svg11.dtd"><svg t="1685700859084" class="icon" viewBox="0 0 1024 1024" version="1.1" xmlns="http://www.w3.org/2000/svg" p-id="8897" xmlns:xlink="http://www.w3.org/1999/xlink" width="200" height="200"><path d="M64 64m102.4 0l691.2 0q102.4 0 102.4 102.4l0 691.2q0 102.4-102.4 102.4l-691.2 0q-102.4 0-102.4-102.4l0-691.2q0-102.4 102.4-102.4Z" fill="#001D26" p-id="8898"></path><path d="M857.6 983.04H166.4a125.5808 125.5808 0 0 1-125.44-125.44V166.4a125.5808 125.5808 0 0 1 125.44-125.44h691.2a125.5808 125.5808 0 0 1 125.44 125.44v691.2a125.5808 125.5808 0 0 1-125.44 125.44zM166.4 87.04a79.4496 79.4496 0 0 0-79.36 79.36v691.2a79.4496 79.4496 0 0 0 79.36 79.36h691.2a79.4496 79.4496 0 0 0 79.36-79.36V166.4a79.4496 79.4496 0 0 0-79.36-79.36z" fill="#00C8FF" p-id="8899"></path><path d="M234.752 325.632h161.28c104.448 0 124.416 67.584 124.416 113.152 0 45.056-19.968 112.64-124.416 112.128h-97.28V691.2h-64z m64 173.056h93.696c28.672 0 64-14.336 64-60.416 0-48.128-29.184-60.416-62.976-60.416h-94.72zM612.096 606.208c3.072 33.792 28.672 46.08 59.904 46.08 22.016 0 60.416-4.608 58.88-34.816-1.536-30.72-44.032-34.304-86.528-44.032-43.008-9.216-84.992-24.576-84.992-78.336 0-57.856 62.464-75.776 110.592-75.776 54.272 0 103.424 22.528 110.592 81.408h-60.928c-5.12-27.648-28.16-35.328-53.76-35.328-16.896 0-48.128 4.096-48.128 27.136 0 28.672 43.008 32.768 86.016 42.496 42.496 9.728 85.504 25.088 85.504 77.312 0 62.976-63.488 86.016-118.272 86.016-66.56 0-116.224-29.696-117.248-92.16z" fill="#00C8FF" p-id="8900"></path></svg>